<?xml version="1.0" encoding="UTF-8" standalone="no"?><!DOCTYPE svg PUBLIC "-//W3C//DTD SVG 1.1//EN" "http://www.w3.org/Graphics/SVG/1.1/DTD/svg11.dtd"><svg width="100%" height="100%" viewBox="0 0 24 24" version="1.1" xmlns="http://www.w3.org/2000/svg" xmlns:xlink="http://www.w3.org/1999/xlink" xml:space="preserve" xmlns:serif="http://www.serif.com/" style="fill-rule:evenodd;clip-rule:evenodd;stroke-linejoin:round;stroke-miterlimit:2;"><path d="M11.964,0c-6.616,0 -11.964,5.5 -11.964,12.304c0,5.439 3.427,10.043 8.181,11.673c0.594,0.122 0.812,-0.265 0.812,-0.591c-0,-0.285 -0.02,-1.263 -0.02,-2.281c-3.328,0.733 -4.021,-1.467 -4.021,-1.467c-0.535,-1.426 -1.327,-1.793 -1.327,-1.793c-1.09,-0.754 0.079,-0.754 0.079,-0.754c1.208,0.082 1.842,1.264 1.842,1.264c1.07,1.874 2.793,1.344 3.487,1.018c0.099,-0.794 0.416,-1.345 0.752,-1.65c-2.654,-0.285 -5.447,-1.345 -5.447,-6.071c0,-1.344 0.475,-2.444 1.228,-3.3c-0.119,-0.305 -0.535,-1.569 0.119,-3.259c0,-0 1.01,-0.326 3.288,1.263c0.975,-0.27 1.981,-0.407 2.991,-0.408c1.01,0 2.04,0.143 2.991,0.408c2.278,-1.589 3.288,-1.263 3.288,-1.263c0.654,1.691 0.238,2.954 0.119,3.259c0.773,0.856 1.228,1.956 1.228,3.3c0,4.727 -2.792,5.765 -5.467,6.071c0.436,0.387 0.812,1.12 0.812,2.282c0,1.649 -0.019,2.974 -0.019,3.381c-0,0.326 0.218,0.713 0.812,0.591c4.754,-1.63 8.181,-6.234 8.181,-11.673c0.019,-6.804 -5.349,-12.304 -11.945,-12.304Z" style="fill:#eee;"/></svg>
